<svg xmlns="http://www.w3.org/2000/svg" xmlns:xlink="http://www.w3.org/1999/xlink" width="300" height="47" viewBox="0 0 300 47">
    <defs>
        <path id="a" d="M0 .279h46.445v46.35H0z"/>
        <path id="c" d="M0 46.721h299.694V.371H0z"/>
    </defs>
    <g fill="none" fill-rule="evenodd">
        <g transform="translate(0 .091)">
            <mask id="b" fill="#fff">
                <use xlink:href="#a"/>
            </mask>
            <path fill="#84A212" d="M0 23.454C0 10.654 10.397.28 23.223.28c12.825 0 23.222 10.376 23.222 23.175 0 12.8-10.397 23.176-23.222 23.176C10.397 46.63 0 36.254 0 23.454" mask="url(#b)"/>
        </g>
        <path fill="#FFF" d="M17.52 37.723c-.798-.056-1.309-.67-1.602-1.177a1.815 1.815 0 0 1-.24-.982l.539-13.619c-.663-.114-1.2-.53-1.57-1.222a3.402 3.402 0 0 1-.374-1.76l.392-8.468.741.034-.392 8.467c-.023.507.076.983.287 1.378.306.573.744.863 1.3.863h.386l-.567 14.356c-.008.208.04.41.14.583.167.288.516.774.987.808l.173-.001c.469-.034.872-.513 1.032-.79.1-.174.15-.375.14-.583l-.566-14.356h.386c.557 0 .994-.29 1.3-.863.21-.395.31-.872.287-1.378l-.392-8.484.74-.034.393 8.484c.029.639-.1 1.248-.374 1.76-.37.691-.907 1.109-1.57 1.223l.538 13.62c.014.346-.069.686-.24.98-.289.502-.894 1.107-1.648 1.16l-.225.001zM30.68 11.65v25.67s-1.514.363-2.58-1.316a1.512 1.512 0 0 1-.224-.9l.54-9.081s-1.553-.158-2.157-1.846a1.827 1.827 0 0 1-.103-.64l.151-9.162c.003-.18.027-.356.072-.529.19-.731.842-2.577 2.685-3.286.777-.299 1.616.26 1.616 1.09"/>
        <mask id="d" fill="#fff">
            <use xlink:href="#c"/>
        </mask>
        <path fill="#FFF" d="M16.301 17.065h.742v-6.553H16.3zM18.093 17.065h.742v-6.553h-.742z" mask="url(#d)"/>
        <path fill="#000" d="M63.958 41.39s.535.064 1.441.064c1.352 0 4.516-.14 4.516-3.704 0-1.541-.587-2.47-1.301-3.005-.79-.586-1.8-.79-3.125-.79-.932 0-1.531.103-1.531.103v7.332zm4.822-.28c-1.11.713-2.488.803-3.496.803-.663 0-1.326-.038-1.582-.102-.23-.05-.255-.166-.255-.408v-7.37c0-.281.09-.358.383-.408.357-.064.982-.115 1.684-.115 1.416 0 2.539.204 3.419.815.919.636 1.53 1.718 1.53 3.335 0 1.795-.752 2.852-1.683 3.45zM76.764 41.62c0 .076 0 .153-.038.203-.039.064-.128.09-.217.09-.09 0-.179-.026-.217-.09-.038-.05-.038-.127-.038-.203v-7.817c0-.076 0-.153.038-.204.038-.064.128-.089.217-.089.09 0 .178.025.217.09.038.05.038.127.038.203v7.817zM83.754 37.113h2.45c.076 0 .153 0 .217.039.063.037.09.101.09.177 0 .09-.027.153-.09.192-.064.037-.14.037-.218.037h-2.449v3.833h3.343c.077 0 .153 0 .217.038.064.039.09.102.09.178 0 .09-.026.153-.09.191-.064.038-.14.038-.217.038h-3.598c-.19 0-.255-.09-.255-.255v-7.727c0-.166.064-.255.255-.255h3.164c.077 0 .153 0 .217.038s.09.102.09.178c0 .09-.026.154-.09.191-.064.039-.14.039-.217.039h-2.909v3.068zM95.451 41.62c0 .076 0 .153-.038.203-.038.064-.128.09-.217.09-.09 0-.179-.026-.216-.09-.039-.05-.039-.127-.039-.203v-7.575h-2.717c-.077 0-.154 0-.217-.038-.064-.039-.09-.103-.09-.179 0-.089.026-.153.09-.19.063-.039.14-.039.217-.039h5.945c.076 0 .152 0 .216.039.064.037.09.101.09.177 0 .09-.026.153-.09.192-.064.038-.14.038-.216.038H95.45v7.575zM104.265 41.62c0 .076 0 .153-.038.203-.038.064-.127.09-.217.09s-.178-.026-.216-.09c-.039-.05-.039-.127-.039-.203v-7.817c0-.076 0-.153.039-.204.038-.064.127-.089.216-.089.09 0 .179.025.217.09.038.05.038.127.038.203v7.817zM113.08 37.533c.829.484 1.492 1.171 1.492 2.254 0 1.438-1.186 2.202-2.475 2.202-.6 0-1.186-.166-1.658-.47-.28-.18-.485-.396-.485-.536 0-.127.128-.242.242-.242.294 0 .677.79 1.888.79 1.11 0 1.978-.65 1.978-1.732 0-.853-.548-1.413-1.174-1.795-.944-.586-2.679-1.133-2.679-2.673 0-1.095.88-1.91 2.258-1.91 1.084 0 1.914.51 1.914.777 0 .09-.077.229-.217.229-.268 0-.663-.548-1.671-.548-1.033 0-1.773.586-1.773 1.44 0 1.196 1.467 1.692 2.36 2.214M122.544 41.62c0 .076 0 .153-.038.203-.038.064-.128.09-.217.09-.09 0-.179-.026-.217-.09-.038-.05-.038-.127-.038-.203v-7.575h-2.717c-.077 0-.154 0-.217-.038-.064-.039-.09-.103-.09-.179 0-.089.026-.153.09-.19.063-.039.14-.039.217-.039h5.945c.076 0 .152 0 .216.039.064.037.09.101.09.177 0 .09-.026.153-.09.192-.064.038-.14.038-.216.038h-2.718v7.575zM131.052 38.08h2.833l-1.391-3.742-1.442 3.743zm2.998.434h-3.164l-1.212 3.157c-.064.152-.127.241-.293.241-.153 0-.217-.063-.217-.165 0-.038.013-.102.051-.191l3.01-7.804c.052-.14.141-.242.294-.242s.242.102.294.242l2.908 7.804c.026.064.051.14.051.191 0 .09-.063.165-.242.165-.153 0-.242-.063-.306-.241l-1.174-3.157zM150.3 33.815c-.739 0-1.313.37-1.313 1.21 0 .739.433 1.337 1.199 2.152.855-.573 1.582-1.172 1.582-2.05 0-.777-.562-1.312-1.467-1.312m2.155 6.15c-.752-.7-1.581-1.49-2.347-2.24-1.02.661-2.028 1.323-2.028 2.43 0 .88.625 1.389 1.633 1.389 1.148 0 2.092-.675 2.742-1.579m-2.653-2.534c-.765-.789-1.327-1.655-1.327-2.431 0-.93.804-1.617 1.876-1.617 1.046 0 1.9.637 1.9 1.731 0 1.082-.842 1.757-1.773 2.368a51.887 51.887 0 0 0 2.233 2.114c.293-.497.51-1.044.638-1.566.076-.318.076-.446.268-.446.152 0 .229.09.229.255 0 .318-.255 1.184-.804 2.05.358.318 1.314 1.158 1.774 1.514.178.14.318.255.318.395 0 .115-.101.178-.204.178-.114 0-.216-.063-.395-.19-.37-.268-1.008-.828-1.748-1.516-.676.917-1.696 1.732-3.087 1.732-1.39 0-2.143-.802-2.143-1.846 0-1.286 1.148-2.012 2.245-2.725M168.005 41.62c0 .076 0 .153-.039.203-.037.064-.114.09-.203.09-.09 0-.166-.026-.205-.09-.038-.05-.038-.127-.038-.203v-7.855c0-.166.064-.255.243-.255.153 0 .255.064.37.217l5.523 7.282v-7.206c0-.076 0-.153.039-.204.038-.064.114-.089.204-.089.089 0 .165.025.203.09.04.05.04.127.04.203v7.855c0 .165-.065.255-.243.255-.154 0-.256-.064-.37-.217l-5.524-7.282v7.206zM186.234 40.678c.586-.713.586-1.63.586-2.292v-4.583c0-.076 0-.153.039-.204.038-.063.127-.089.217-.089.089 0 .178.026.216.09.038.05.038.127.038.203V38.4c0 .7 0 1.833-.778 2.673-.6.65-1.505.942-2.59.942-1.224 0-2.015-.369-2.563-.954-.779-.84-.779-1.757-.779-2.674v-4.583c0-.076 0-.153.038-.204.039-.063.128-.089.218-.089.089 0 .178.026.216.09.038.05.038.127.038.203v4.583c0 .662 0 1.579.587 2.292.485.586 1.264.878 2.259.878.994 0 1.772-.292 2.258-.878M196.144 41.62c0 .076 0 .153-.038.203-.039.064-.128.09-.217.09-.09 0-.179-.026-.217-.09-.039-.05-.039-.127-.039-.203v-7.575h-2.716c-.077 0-.154 0-.218-.038-.063-.039-.089-.103-.089-.179 0-.089.026-.153.09-.19.063-.039.14-.039.217-.039h5.944c.077 0 .153 0 .217.039.064.037.09.101.09.177 0 .09-.026.153-.09.192-.064.038-.14.038-.217.038h-2.717v7.575zM204.958 37.648s.217.025.574.025c1.901 0 2.743-.751 2.743-1.91 0-1.4-1.2-1.82-2.437-1.82-.485 0-.88.063-.88.063v3.642zm0 3.972c0 .076 0 .153-.038.203-.039.064-.128.09-.217.09-.09 0-.179-.026-.217-.09-.038-.05-.038-.127-.038-.203v-7.588c0-.267 0-.395.433-.459.256-.037.638-.063.996-.063.676 0 1.34.09 1.9.382.664.344 1.06.916 1.06 1.808 0 1.07-.575 1.884-1.863 2.24l2.615 3.629c.127.178.115.343-.166.343-.217 0-.306-.101-.408-.254l-1.824-2.546c-.383-.535-.727-1.07-.727-1.07s-.409.064-.97.064c-.357 0-.536-.025-.536-.025v3.539zM215.698 41.62c0 .076 0 .153-.039.203-.038.064-.127.09-.216.09-.09 0-.179-.026-.217-.09-.038-.05-.038-.127-.038-.203v-7.817c0-.076 0-.153.038-.204.038-.064.128-.089.217-.089s.178.025.216.09c.039.05.039.127.039.203v7.817zM225.673 41.544c.549 0 1.072-.115 1.518-.306.561-.242.804-.522.97-.522.115 0 .204.114.204.23 0 .127-.115.24-.358.394a4.233 4.233 0 0 1-2.321.662c-2.08 0-4.197-1.312-4.197-4.367 0-3.005 2.041-4.24 4.108-4.24.943 0 1.709.255 2.308.612.294.178.46.318.46.446 0 .101-.115.241-.23.241-.153 0-.37-.267-.944-.509a4.176 4.176 0 0 0-1.646-.33c-1.722 0-3.508 1.017-3.508 3.742 0 2.813 1.901 3.947 3.636 3.947M234.665 41.62c0 .076 0 .153-.038.203-.038.064-.127.09-.216.09-.09 0-.18-.026-.217-.09-.039-.05-.039-.127-.039-.203v-7.817c0-.076 0-.153.039-.204.038-.064.127-.089.217-.089.089 0 .178.025.216.09.038.05.038.127.038.203v7.817zM244.64 41.569c2.156 0 3.598-1.4 3.598-3.857 0-2.457-1.467-3.884-3.636-3.884-2.155 0-3.597 1.427-3.597 3.884s1.467 3.857 3.636 3.857m0-8.199c2.576 0 4.146 1.744 4.146 4.342 0 2.597-1.595 4.315-4.185 4.315-2.577 0-4.146-1.718-4.146-4.315 0-2.598 1.595-4.342 4.185-4.342M255.062 41.62c0 .076 0 .153-.039.203-.037.064-.114.09-.203.09-.09 0-.166-.026-.205-.09-.038-.05-.038-.127-.038-.203v-7.855c0-.166.064-.255.243-.255.153 0 .255.064.37.217l5.523 7.282v-7.206c0-.076 0-.153.039-.204.038-.064.114-.089.204-.089.089 0 .165.025.203.09.04.05.04.127.04.203v7.855c0 .165-.065.255-.243.255-.154 0-.256-.064-.37-.217l-5.524-7.282v7.206zM268.187 41.62c0 .076 0 .153-.038.203-.039.064-.128.09-.217.09-.09 0-.179-.026-.217-.09-.038-.05-.038-.127-.038-.203v-7.817c0-.076 0-.153.038-.204.038-.064.128-.089.217-.089.09 0 .178.025.217.09.038.05.038.127.038.203v7.817zM277.001 37.533c.83.484 1.493 1.171 1.493 2.254 0 1.438-1.186 2.202-2.475 2.202-.6 0-1.186-.166-1.658-.47-.28-.18-.485-.396-.485-.536 0-.127.128-.242.242-.242.294 0 .677.79 1.888.79 1.11 0 1.978-.65 1.978-1.732 0-.853-.549-1.413-1.174-1.795-.944-.586-2.679-1.133-2.679-2.673 0-1.095.88-1.91 2.258-1.91 1.084 0 1.914.51 1.914.777 0 .09-.077.229-.217.229-.268 0-.663-.548-1.671-.548-1.033 0-1.774.586-1.774 1.44 0 1.196 1.468 1.692 2.36 2.214M286.466 41.62c0 .076 0 .153-.038.203-.038.064-.127.09-.217.09s-.178-.026-.216-.09c-.04-.05-.04-.127-.04-.203v-7.575h-2.716c-.077 0-.153 0-.217-.038-.064-.039-.09-.103-.09-.179 0-.089.026-.153.09-.19.064-.039.14-.039.217-.039h5.945c.076 0 .153 0 .216.039.064.037.09.101.09.177 0 .09-.026.153-.09.192-.063.038-.14.038-.216.038h-2.718v7.575zM294.974 38.08h2.832l-1.39-3.742-1.442 3.743zm2.998.434h-3.164l-1.212 3.157c-.064.152-.127.241-.293.241-.153 0-.217-.063-.217-.165 0-.038.013-.102.051-.191l3.01-7.804c.052-.14.141-.242.294-.242s.242.102.293.242l2.91 7.804c.024.064.05.14.05.191 0 .09-.064.165-.242.165-.154 0-.243-.063-.306-.241l-1.174-3.157z" mask="url(#d)"/>
        <path fill="#84A212" d="M70.914 23.442c-1.91 0-3.602-.376-5.075-1.127a8.38 8.38 0 0 1-3.472-3.258c-.841-1.422-1.262-3.086-1.262-4.992 0-1.81.408-3.436 1.226-4.882.817-1.446 1.987-2.589 3.508-3.429 1.521-.84 3.278-1.26 5.268-1.26 1.004 0 2.028.134 3.072.4 1.044.267 1.938.626 2.683 1.078l-.607 3.126c-1.764-.872-3.464-1.309-5.099-1.309-1.198 0-2.266.251-3.204.751a5.454 5.454 0 0 0-2.21 2.157c-.534.937-.801 2.036-.801 3.295 0 1.89.566 3.389 1.7 4.495 1.132 1.107 2.662 1.66 4.588 1.66.842 0 1.74-.121 2.695-.364a12.538 12.538 0 0 0 2.695-1.017l.389 3.198c-.826.469-1.773.832-2.841 1.09a13.81 13.81 0 0 1-3.253.388M86.136 20.559c.955 0 1.74-.331 2.355-.994.615-.662.923-1.518.923-2.568 0-1.034-.303-1.882-.91-2.544-.607-.662-1.396-.994-2.368-.994-.97 0-1.76.332-2.367.994-.607.662-.91 1.51-.91 2.544 0 1.05.307 1.906.922 2.568.615.663 1.4.994 2.355.994m0 3.004c-1.213 0-2.327-.275-3.338-.823a6.24 6.24 0 0 1-2.416-2.327c-.599-1.001-.898-2.14-.898-3.416 0-1.18.279-2.266.837-3.26a6.33 6.33 0 0 1 2.368-2.386c1.02-.597 2.169-.896 3.447-.896 1.214 0 2.327.27 3.339.812a6.157 6.157 0 0 1 2.415 2.314c.599 1.001.899 2.14.899 3.416 0 1.195-.28 2.29-.838 3.283a6.322 6.322 0 0 1-2.367 2.387c-1.02.597-2.17.896-3.448.896M95.678 10.843h3.253l.024 1.526a3.638 3.638 0 0 1 1.518-1.43c.64-.322 1.387-.484 2.245-.484 1.797 0 3.06.735 3.788 2.205.34-.662.87-1.195 1.59-1.6a4.759 4.759 0 0 1 2.368-.605c1.473 0 2.598.444 3.375 1.332.776.889 1.165 2.19 1.165 3.901v7.488h-3.375v-6.857c0-.985-.178-1.712-.534-2.181-.357-.468-.907-.703-1.651-.703-.745 0-1.332.275-1.76.824-.43.55-.644 1.308-.644 2.278v6.639h-3.374v-6.857c0-.985-.175-1.712-.523-2.181-.348-.468-.902-.703-1.663-.703-.76 0-1.355.275-1.784.824-.43.55-.644 1.3-.644 2.253v6.664h-3.374V10.843zM118.524 23.175h3.375V10.843h-3.375v12.332zM120.2 8.323c-.582 0-1.064-.19-1.444-.57-.38-.38-.57-.844-.57-1.393s.19-1.01.57-1.381c.38-.372.862-.557 1.444-.557.583 0 1.065.185 1.445.557.38.372.57.832.57 1.381 0 .566-.19 1.034-.57 1.405-.38.372-.862.558-1.445.558zM133.747 15.688c-.081-.856-.36-1.514-.838-1.974-.478-.46-1.113-.69-1.906-.69-.776 0-1.416.23-1.917.69-.503.46-.826 1.118-.972 1.974h5.633zm-1.772 7.875c-1.441 0-2.7-.258-3.776-.775-1.076-.517-1.914-1.272-2.512-2.265-.6-.994-.899-2.16-.899-3.502 0-1.243.258-2.362.777-3.356a5.832 5.832 0 0 1 2.21-2.35c.954-.573 2.063-.86 3.325-.86 1.166 0 2.19.246 3.072.739a5.17 5.17 0 0 1 2.063 2.12c.494.92.741 2.011.741 3.271a8.01 8.01 0 0 1-.121 1.454h-8.717c.421 1.841 1.821 2.762 4.2 2.762.745 0 1.47-.077 2.174-.23a7.778 7.778 0 0 0 1.906-.666l.34 2.64c-.583.324-1.296.574-2.137.752-.842.177-1.724.266-2.646.266zM140.035 10.843h3.253l.025 1.526a3.608 3.608 0 0 1 1.493-1.418c.64-.33 1.387-.496 2.246-.496 1.457 0 2.57.448 3.338 1.345.769.896 1.153 2.192 1.153 3.888v7.488h-3.374v-6.857c0-1.922-.737-2.884-2.21-2.884-.81 0-1.436.27-1.882.812-.445.541-.667 1.305-.667 2.29v6.639h-3.375V10.843zM161.012 20.559c.955 0 1.74-.331 2.355-.994.615-.662.922-1.518.922-2.568 0-1.034-.303-1.882-.91-2.544-.607-.662-1.396-.994-2.367-.994-.971 0-1.76.332-2.368.994-.607.662-.91 1.51-.91 2.544 0 1.05.307 1.906.923 2.568.615.663 1.4.994 2.355.994m-.923 3.004c-1.085 0-2.06-.267-2.925-.8-.867-.532-1.55-1.296-2.052-2.29-.502-.992-.753-2.135-.753-3.428 0-1.195.247-2.29.741-3.283a6.089 6.089 0 0 1 2.1-2.399c.906-.605 1.926-.908 3.06-.908.808 0 1.549.161 2.22.485.672.323 1.21.775 1.615 1.356V3.55h3.375v19.626h-3.23l-.048-1.575a4.024 4.024 0 0 1-1.675 1.466c-.696.332-1.505.497-2.428.497M177.012 20.559c.955 0 1.74-.331 2.355-.994.615-.662.922-1.518.922-2.568 0-1.034-.303-1.882-.91-2.544-.607-.662-1.396-.994-2.367-.994-.972 0-1.76.332-2.368.994-.607.662-.91 1.51-.91 2.544 0 1.05.307 1.906.923 2.568.615.663 1.4.994 2.355.994m0 3.004c-1.214 0-2.327-.275-3.339-.823a6.24 6.24 0 0 1-2.415-2.327c-.6-1.001-.899-2.14-.899-3.416 0-1.18.28-2.266.838-3.26a6.33 6.33 0 0 1 2.367-2.386c1.02-.597 2.17-.896 3.448-.896 1.213 0 2.326.27 3.338.812a6.157 6.157 0 0 1 2.416 2.314c.598 1.001.898 2.14.898 3.416 0 1.195-.279 2.29-.837 3.283a6.322 6.322 0 0 1-2.368 2.387c-1.02.597-2.17.896-3.447.896M192.574 23.54c-1.23 0-2.327-.255-3.29-.764a5.607 5.607 0 0 1-2.27-2.18c-.55-.946-.825-2.048-.825-3.309 0-1.178.259-2.244.777-3.197a5.752 5.752 0 0 1 2.221-2.266c.963-.557 2.068-.836 3.314-.836 1.44 0 2.647.29 3.618.872l-.219 1.236a6.345 6.345 0 0 0-1.614-.63 7.443 7.443 0 0 0-1.785-.218c-.939 0-1.772.202-2.5.606a4.37 4.37 0 0 0-1.724 1.744c-.421.76-.632 1.64-.632 2.641 0 1.519.454 2.738 1.36 3.659.906.921 2.112 1.381 3.618 1.381a7.43 7.43 0 0 0 3.593-.92l.17 1.186c-.486.308-1.068.55-1.748.727a8.132 8.132 0 0 1-2.064.267M204.957 22.303a4.62 4.62 0 0 0 2.355-.618c.712-.411 1.278-1.005 1.7-1.78.42-.776.63-1.664.63-2.666 0-.936-.19-1.785-.57-2.544a4.51 4.51 0 0 0-1.639-1.817c-.712-.452-1.538-.679-2.476-.679-.858 0-1.643.206-2.356.618-.712.412-1.278 1.006-1.7 1.781-.42.775-.63 1.664-.63 2.665 0 .937.19 1.786.57 2.545.38.76.927 1.365 1.639 1.817.712.452 1.538.678 2.477.678m0 1.26c-1.134 0-2.161-.263-3.084-.787-.923-.525-1.663-1.268-2.221-2.23-.559-.96-.838-2.055-.838-3.283 0-1.13.259-2.172.777-3.125a6.18 6.18 0 0 1 2.185-2.314c.939-.59 1.999-.885 3.18-.885 1.134 0 2.162.263 3.084.788.923.525 1.663 1.268 2.222 2.229.558.961.837 2.056.837 3.283 0 1.13-.26 2.173-.777 3.126a6.186 6.186 0 0 1-2.185 2.314c-.939.59-1.999.884-3.18.884M214.862 11.327h1.311l.025 2.011c.42-.775.999-1.369 1.735-1.78.737-.412 1.583-.619 2.538-.619 1.408 0 2.5.445 3.277 1.333.778.889 1.166 2.14 1.166 3.756v7.148h-1.408v-6.93c0-2.698-1.11-4.047-3.326-4.047-1.199 0-2.15.408-2.853 1.224-.704.816-1.056 1.919-1.056 3.307v6.446h-1.409V11.327zM229.381 4.76h3.836l5.973 11.268 6.02-11.267h3.618v18.415h-3.399V10.237l-4.807 8.99h-3.035l-4.807-8.99v12.939h-3.399zM258.783 20.559c.954 0 1.74-.331 2.355-.994.615-.662.922-1.518.922-2.568 0-1.034-.303-1.882-.91-2.544-.607-.662-1.396-.994-2.367-.994-.972 0-1.76.332-2.368.994-.607.662-.91 1.51-.91 2.544 0 1.05.307 1.906.922 2.568.616.663 1.4.994 2.356.994m-.923 3.004c-1.085 0-2.06-.267-2.926-.8-.866-.532-1.55-1.296-2.051-2.29-.502-.992-.753-2.135-.753-3.428 0-1.195.247-2.29.74-3.283a6.089 6.089 0 0 1 2.1-2.399c.907-.605 1.927-.908 3.06-.908.841 0 1.606.174 2.294.52a4.112 4.112 0 0 1 1.64 1.467l.048-1.6h3.229v12.333h-3.23l-.048-1.575a4.024 4.024 0 0 1-1.675 1.466c-.696.332-1.505.497-2.428.497M268.834 10.843h3.253l.025 2.035c.34-.727.797-1.284 1.371-1.672.575-.387 1.243-.582 2.003-.582.518 0 .996.09 1.433.267l-.291 3.174a4.152 4.152 0 0 0-1.505-.29c-.923 0-1.64.33-2.15.993-.51.662-.764 1.591-.764 2.786v5.622h-3.375V10.843zM279.395 23.175h3.375V10.843h-3.375v12.332zm1.991-18.826h3.74l-3.4 4.046h-2.89l2.55-4.046zM292.312 20.559c.955 0 1.74-.331 2.355-.994.615-.662.922-1.518.922-2.568 0-1.034-.303-1.882-.91-2.544-.607-.662-1.396-.994-2.367-.994-.971 0-1.76.332-2.368.994-.607.662-.91 1.51-.91 2.544 0 1.05.307 1.906.923 2.568.615.663 1.4.994 2.355.994m-.923 3.004c-1.085 0-2.06-.267-2.925-.8-.867-.532-1.55-1.296-2.052-2.29-.502-.992-.753-2.135-.753-3.428 0-1.195.247-2.29.741-3.283a6.089 6.089 0 0 1 2.1-2.399c.906-.605 1.926-.908 3.06-.908.84 0 1.605.174 2.293.52a4.112 4.112 0 0 1 1.64 1.467l.048-1.6h3.23v12.333h-3.23l-.049-1.575a4.024 4.024 0 0 1-1.675 1.466c-.696.332-1.505.497-2.428.497" mask="url(#d)"/>
    </g>
</svg>
